<svg version="1.2" xmlns="http://www.w3.org/2000/svg" viewBox="0 0 1254 1254" width="1254" height="1254">
	<style>
		.s0 { fill: #e8e8e8 } 
		.s1 { fill: #ffffff } 
	</style>
	<g id="Pasta 1">
		<path id="Thi" class="s0" d="m338.95 797.57h-31.77v-13.43h79.04v13.43h-31.65v88.43h-15.62zm87.2 43.14v45.29h-15.04v-101.86h14.91v44.14h-1.97q3.33-10.25 9.63-14.95 6.4-4.72 15.41-4.72 7.8 0 13.64 3.29 5.9 3.26 9.09 9.7 3.32 6.38 3.32 15.84v48.56h-15.1v-46.69q0-8.25-4.35-12.92-4.25-4.68-11.74-4.68-5.09 0-9.18 2.29-3.98 2.16-6.36 6.42-2.26 4.22-2.26 10.29zm91 45.29h-15.04v-76.43h15.04zm-7.48-88.09q-3.86 0-6.67-2.62-2.77-2.63-2.77-6.31 0-3.75 2.77-6.34 2.81-2.59 6.67-2.59 3.92 0 6.66 2.59 2.84 2.59 2.84 6.34 0 3.68-2.84 6.31-2.74 2.62-6.66 2.62z"/>
		<path id="Hotel" fill-rule="evenodd" class="s1" d="m579.29 885h-12.99v-101.86h12.99v44.03h53.46v-44.03h12.99v101.86h-12.99v-46.35h-53.46zm134.61 1.64q-10.39 0-18.25-4.92-7.79-4.92-12.17-13.81-4.37-8.88-4.37-20.64 0-11.96 4.37-20.85 4.38-8.96 12.17-13.88 7.86-4.92 18.25-4.92 10.46 0 18.32 4.92 7.87 4.92 12.24 13.88 4.38 8.89 4.38 20.85 0 11.76-4.38 20.64-4.37 8.89-12.24 13.81-7.86 4.92-18.32 4.92zm0-11q7.73 0 12.72-3.97 4.99-3.96 7.38-10.39 2.39-6.49 2.39-14.01 0-7.59-2.39-14.08-2.39-6.57-7.38-10.53-4.99-4.03-12.72-4.03-7.65 0-12.57 4.03-4.93 3.96-7.32 10.46-2.39 6.49-2.39 14.15 0 7.52 2.39 14.01 2.39 6.43 7.32 10.39 4.92 3.97 12.57 3.97zm57.47-67.06h11.48v-18.19h12.31v18.19h15.72v10.52h-15.72v46.08q0 5.13 2.05 7.52 2.12 2.32 6.97 2.32 1.16 0 2.94-0.27 1.84-0.27 3.35-0.55l2.53 10.39q-1.92 0.69-4.38 1.03-2.39 0.34-4.78 0.34-9.91 0-15.45-5.2-5.54-5.26-5.54-14.62v-47.04h-11.48zm99.56 78.07q-11.07 0-19.14-4.92-8-4.92-12.37-13.74-4.31-8.82-4.31-20.58 0-11.76 4.24-20.71 4.24-8.96 11.96-14.01 7.79-5.06 18.18-5.06 6.09 0 11.97 2.05 5.94 1.98 10.73 6.49 4.85 4.45 7.72 11.76 2.88 7.31 2.88 17.91v5.13h-55.21q0.26 7.42 2.91 12.78 2.94 5.88 8.2 8.96 5.34 3 12.31 3 4.51 0 8.2-1.3 3.69-1.29 6.36-3.89 2.66-2.67 4.1-6.56l11.89 3.28q-1.77 5.74-6.01 10.11-4.24 4.38-10.53 6.84-6.22 2.46-14.08 2.46zm17.09-55.58q-2.32-5.87-6.97-9.16-4.65-3.35-11.56-3.35-6.9 0-11.82 3.42-4.92 3.35-7.52 8.82-2.21 4.59-2.54 9.78h42.64q-0.47-5.22-2.23-9.51zm46.78-47.92h12.31v101.86h-12.31z"/>
		<path id="Forma 2" fill-rule="evenodd" class="s0" d="m625 558v164h-48l0.45-134.21z"/>
		<path id="Forma 2 copy" fill-rule="evenodd" class="s1" d="m625 558v164h48l-0.45-134.21z"/>
		<path id="Forma 1" fill-rule="evenodd" class="s1" d="m672 367v39h-259v-39z"/>
		<path id="Forma 1 copy" fill-rule="evenodd" class="s1" d="m566 722h-39v-318h39z"/>
		<path id="Forma 1 copy 2" fill-rule="evenodd" class="s1" d="m774 508v39h-149v-39z"/>
		<path id="Forma 1 copy 3" fill-rule="evenodd" class="s1" d="m813 727h-39v-318h39z"/>
	</g>
</svg>